<svg width="376" height="147" viewBox="0 0 376 147" fill="none" xmlns="http://www.w3.org/2000/svg">
<g clip-path="url(#clip0)">
<path d="M257.925 59.3101H194.284V106.981H257.925V59.3101Z" fill="#FBCCA4"/>
<path d="M292.587 90.6394L285.062 91.6757C283.301 91.4366 280.819 91.4366 278.578 92.7121C276.336 93.9078 275.216 95.7413 274.815 96.3791C273.054 99.0895 268.812 102.757 257.925 107.061C250 98.372 239.913 88.7262 227.185 79.6383C221.421 75.493 215.818 71.9854 210.454 68.8764C208.133 68.5575 203.25 68.2386 197.726 70.6302C190.442 73.7392 186.919 79.4789 185.879 81.3921C181.476 86.7332 174.992 88.9653 169.868 87.1318C166.907 86.0157 165.145 83.8634 164.185 82.4284C167.467 78.6817 170.829 75.0147 174.111 71.2679C176.993 65.9268 179.074 61.7017 180.435 58.7522C181.396 56.5998 182.356 54.5271 184.598 52.8531C186.919 51.179 189.561 50.7804 191.322 50.7804C196.766 49.0266 202.289 47.3525 207.733 45.5987C215.097 44.7218 221.421 44.5624 226.304 44.7218C229.106 44.8015 233.269 44.8812 238.712 45.5987C247.518 46.7945 249.519 48.2294 254.803 48.7077C259.125 49.1063 265.369 48.8671 273.375 45.5987C277.617 44.7218 281.86 43.8449 286.183 42.968L292.587 90.6394Z" fill="#FBCCA4"/>
<path d="M271.133 41.8519L284.341 37.7065C288.184 43.6057 293.387 53.3313 296.189 66.2456C298.51 77.0872 298.27 86.4142 297.55 92.8714C293.547 93.5091 289.545 94.1469 285.542 94.7846C286.503 88.8058 287.383 77.725 283.461 64.8107C280.179 53.969 274.815 46.2364 271.133 41.8519Z" fill="#F7F8FA"/>
<path d="M281.219 91.7553L285.542 94.7845L286.023 91.5161L281.219 91.7553Z" fill="#909194"/>
<path d="M271.133 41.8519L269.132 47.0336L273.615 45.4392L271.133 41.8519Z" fill="#929295"/>
<path d="M281.94 34.9165C285.062 39.1415 288.184 44.3232 290.826 50.4615C299.791 71.3476 297.63 91.0379 295.709 101.162C322.446 95.5022 349.263 89.8422 376 84.1822V2.15234L281.94 34.9165Z" fill="#58C1EC"/>
<path d="M281.94 34.9165L279.779 39.1416L284.342 37.6269L281.94 34.9165Z" fill="#09AADB"/>
<path d="M288.104 94.386L295.629 101.162L296.83 93.1902L288.104 94.386Z" fill="#09AADB"/>
<path d="M110.47 48.3888C119.676 50.7804 127.121 51.179 132.164 51.179C147.534 51.0195 165.626 46.3162 177.713 43.2072C179.555 42.7288 181.716 42.1708 184.838 41.8519C194.444 40.8156 202.529 43.2869 207.813 45.519L210.454 68.8764L257.925 107.061C261.367 109.214 262.247 113.678 260.166 116.468C258.485 118.78 255.123 119.657 252.161 118.381C249.759 117.026 247.278 115.751 244.876 114.395C244.876 114.874 244.876 119.736 240.874 122.686C237.752 124.998 233.509 125.237 229.907 123.403C229.346 127.23 226.865 130.339 223.503 131.375C220.381 132.332 217.659 131.216 216.858 130.817C216.378 132.81 215.578 134.165 214.777 135.122C210.935 139.985 202.689 141.181 194.124 138.55C180.355 133.289 166.506 128.027 152.737 122.766C147.134 117.823 139.609 112.163 129.923 106.982C121.918 102.677 114.473 99.8069 108.229 97.8937L88.7766 94.7847L110.47 48.3888Z" fill="#E7B992"/>
<path d="M117.115 44.084C113.432 48.7874 108.95 55.5634 105.667 64.3324C99.6637 80.1963 100.464 94.3064 101.505 101.88C96.8619 101.162 92.2189 100.365 87.5759 99.6475C86.9355 90.4799 87.0956 76.5292 92.299 60.6653C95.1007 51.8166 98.8632 44.642 102.305 39.0618C107.269 40.7358 112.152 42.4099 117.115 44.084Z" fill="#F7F8FA"/>
<path d="M101.425 101.88L108.229 97.8936L100.944 96.7776L101.425 101.88Z" fill="#909194"/>
<path d="M117.115 44.0841L119.356 50.2224L113.432 49.1063L117.115 44.0841Z" fill="#929295"/>
<path d="M104.787 35.5542C100.544 41.6925 95.7411 50.0629 92.2989 60.6654C85.3345 81.711 87.0155 100.206 88.8567 110.33C59.1578 103.873 29.6189 97.3357 0 90.7988V0C34.9023 11.878 69.8045 23.756 104.787 35.5542Z" fill="#1C9AD6"/>
<path d="M88.7767 110.41C89.9775 110.17 91.8186 109.612 93.7399 108.257C96.8618 106.105 98.1427 103.155 98.623 101.959C94.9406 101.242 91.2583 100.445 87.5759 99.7273L88.7767 110.41Z" fill="#057CA8"/>
<path d="M104.787 35.5543C105.107 35.7138 106.388 36.2718 107.108 37.7864C107.749 39.1416 107.509 40.4171 107.429 40.736C105.748 40.178 104.067 39.6199 102.385 38.9822L104.787 35.5543Z" fill="#057CA8"/>
<path d="M130.003 106.981C129.763 108.974 129.923 110.648 130.163 111.924C131.684 119.657 138.809 125.237 145.293 127.15C147.374 127.788 149.215 127.947 150.176 128.027C149.936 131.216 151.457 134.245 154.018 135.68C157.301 137.513 161.943 136.318 164.345 132.73C162.824 136.796 164.585 141.18 167.947 142.775C171.79 144.688 177.233 142.615 178.914 137.753C179.395 142.376 181.316 146.282 184.118 146.92C188.601 148.036 193.083 140.463 194.204 138.629C197.246 133.528 197.646 128.505 197.646 125.795C197.326 122.845 195.165 120.852 193.163 120.932C191.402 121.012 190.202 122.526 190.041 122.766C190.682 119.338 188.841 115.91 185.719 114.634C182.357 113.279 178.434 114.794 176.673 118.062C176.753 117.504 177.313 113.199 174.512 110.728C172.43 108.895 169.788 109.054 168.508 109.134C159.702 109.612 153.618 121.251 152.898 122.766C145.133 117.504 137.528 112.243 130.003 106.981Z" fill="#FBCCA4"/>
</g>
<defs>
<clipPath id="clip0">
<rect width="376" height="147" fill="white"/>
</clipPath>
</defs>
</svg>
